<svg width="45" height="63" viewBox="0 0 45 63" fill="none" xmlns="http://www.w3.org/2000/svg">
<path d="M29.3102 15.9304C27.4678 13.5616 27.8918 10.1292 28.6304 7.42083C28.8296 6.69032 29.6123 5.78873 29.6123 5.05427M29.4046 4.89711C32.5967 2.34344 33.9363 5.25993 33.9363 8.22036M43.906 12.601C43.906 11.0598 43.8753 9.88198 41.9087 9.88198C41.1194 9.88198 40.4182 9.93683 39.6765 10.1841M41.7912 9.57986C42.9862 7.83814 44.1654 6.35646 42.5549 4.61177C41.8657 3.8651 41.5212 3.83971 40.5828 3.83971M39.0722 5.50133C39.4715 3.8044 39.2745 0.130788 36.4371 1.18782C35.5715 1.51029 34.2435 3.22012 33.9363 4.14182M33.7916 19.8661C30.8324 25.6129 27.0063 30.9508 23.5055 36.3547C20.5989 40.8414 17.2059 45.1139 14.8027 49.8778M29.5557 15.9243C28.4679 18.8341 26.2811 21.5247 24.5792 24.1485C24.1738 24.7734 23.7736 25.323 23.2571 25.8478M23.2571 25.8478C23.2419 25.8632 23.2266 25.8786 23.2113 25.894M23.2571 25.8478C23.4738 26.6994 23.1848 27.6868 22.7581 28.9151M23.2571 25.8478C23.0909 25.1949 22.6274 24.6219 21.7007 24.0813M20.9454 24.0813C19.322 25.7684 18.6796 27.6564 18.6796 29.9725M19 30.0543C17.2593 32.5441 15.3434 34.9717 13.6957 37.5136C11.6367 40.69 9.07668 43.4534 7.16305 46.7193C5.29939 49.8999 3.05236 53.0013 1 56.0543C1.23663 57.4335 2.09859 58.829 3.0512 59.6498C4.59099 60.9765 6.09682 61.7837 8 62.0543M12.6373 51.8758C14.2841 50.2601 15.6437 49.9861 17.9243 50.2142M11.5218 56.8423C10.7047 58.0679 9.84025 59.2689 9.19608 60.583C8.95714 61.0704 8.79911 61.5971 8.4058 61.9904M17.8807 50.49C18.3283 52.7481 15.9523 54.4354 14.3618 55.6364C13.3535 56.3978 11.5791 56.5413 10.359 56.5413M34.0073 19.5085C34.4958 19.566 34.9873 19.5967 35.4788 19.5759C35.8916 19.5585 36.2992 19.4889 36.7084 19.4361C37.1199 19.383 37.5469 19.3142 37.9221 19.1257C38.1119 19.0304 38.294 18.9225 38.4863 18.8312C38.6892 18.735 38.9132 18.6608 39.0972 18.5298C39.4405 18.2851 39.7813 18.0417 40.1254 17.799C40.445 17.5736 40.7664 17.3387 41.0466 17.0642C41.2755 16.84 41.505 16.5749 41.7685 16.3909C42.1923 16.0951 42.4254 15.7152 42.7462 15.321C42.8944 15.1389 42.9571 14.9304 43.0824 14.7389C43.1941 14.5681 43.3064 14.4157 43.4036 14.2352C43.5259 14.0082 43.622 13.7841 43.6912 13.5371C43.7288 13.403 43.7388 13.2657 43.7745 13.1326C43.8041 13.0221 43.8617 12.9224 43.8955 12.8133C43.9536 12.6252 43.9553 12.4559 43.949 12.2619" stroke="black" stroke-linecap="round" stroke-linejoin="round"/>
</svg>
